<svg width="16" height="16" viewBox="0 0 16 16" fill="none" xmlns="http://www.w3.org/2000/svg">
<path fill-rule="evenodd" clip-rule="evenodd" d="M3.66602 7.99984C3.66602 6.71117 4.71068 5.6665 5.99935 5.6665V3.6665C3.60611 3.6665 1.66602 5.6066 1.66602 7.99984C1.66602 10.3931 3.60611 12.3332 5.99935 12.3332V10.3332C4.71068 10.3332 3.66602 9.2885 3.66602 7.99984ZM11.9993 7.99984C11.9993 9.10441 11.1039 9.99984 9.99935 9.99984C8.89478 9.99984 7.99935 9.10441 7.99935 7.99984C7.99935 6.89527 8.89478 5.99984 9.99935 5.99984C11.1039 5.99984 11.9993 6.89527 11.9993 7.99984ZM13.9993 7.99984C13.9993 10.209 12.2085 11.9998 9.99935 11.9998C7.79021 11.9998 5.99935 10.209 5.99935 7.99984C5.99935 5.7907 7.79021 3.99984 9.99935 3.99984C12.2085 3.99984 13.9993 5.7907 13.9993 7.99984Z" fill="white"/>
</svg>
