<svg width="16" height="16" viewBox="0 0 16 16" fill="none" xmlns="http://www.w3.org/2000/svg">
<path d="M13.1951 4.81321C12.6586 3.87086 11.9308 3.12481 11.0116 2.57487C10.0923 2.02491 9.08862 1.75 7.99995 1.75C6.91141 1.75 5.90743 2.025 4.98827 2.57487C4.06898 3.12478 3.34123 3.87086 2.8047 4.81321C2.26824 5.75552 2 6.78454 2 7.90023C2 9.24042 2.38144 10.4456 3.14452 11.5159C3.90751 12.5864 4.89319 13.3271 6.10146 13.7382C6.24211 13.765 6.34623 13.7461 6.41392 13.6822C6.48165 13.6182 6.51547 13.538 6.51547 13.4421C6.51547 13.426 6.51413 13.282 6.51153 13.0096C6.50885 12.7373 6.50759 12.4997 6.50759 12.297L6.32789 12.3289C6.21332 12.3504 6.06879 12.3595 5.8943 12.3569C5.71988 12.3544 5.53882 12.3357 5.35136 12.3008C5.16381 12.2663 4.98937 12.1862 4.8279 12.0608C4.66651 11.9353 4.55194 11.7711 4.48422 11.5683L4.4061 11.3841C4.35402 11.2614 4.27204 11.1251 4.16005 10.9757C4.04805 10.8262 3.93479 10.7248 3.82022 10.6714L3.76553 10.6313C3.72908 10.6046 3.69526 10.5724 3.66398 10.5351C3.63273 10.4978 3.60934 10.4604 3.59371 10.423C3.57806 10.3855 3.59103 10.3548 3.63276 10.3307C3.67449 10.3066 3.7499 10.2949 3.85933 10.2949L4.01552 10.3189C4.11969 10.3403 4.24854 10.4042 4.40224 10.511C4.55586 10.6178 4.68214 10.7566 4.78111 10.9273C4.90096 11.1463 5.04535 11.3131 5.21471 11.4279C5.38392 11.5427 5.55453 11.6 5.72637 11.6C5.89821 11.6 6.04663 11.5867 6.17168 11.5601C6.29659 11.5334 6.41379 11.4933 6.52321 11.4399C6.57008 11.0821 6.69771 10.8072 6.90597 10.615C6.60913 10.583 6.34226 10.5349 6.10521 10.4708C5.8683 10.4067 5.62348 10.3026 5.37092 10.1584C5.11822 10.0143 4.90859 9.83535 4.74198 9.62189C4.57534 9.40832 4.43858 9.12794 4.33189 8.781C4.22514 8.43392 4.17176 8.03354 4.17176 7.57976C4.17176 6.93365 4.37753 6.38383 4.78899 5.92999C4.59624 5.44423 4.61444 4.89968 4.84363 4.2964C4.99468 4.24829 5.21867 4.28439 5.51551 4.40447C5.8124 4.52461 6.02977 4.62752 6.16785 4.71285C6.30592 4.79814 6.41655 4.87043 6.4999 4.92905C6.98436 4.79029 7.48431 4.7209 7.99989 4.7209C8.51547 4.7209 9.01553 4.79029 9.50002 4.92905L9.79688 4.73694C9.99989 4.60875 10.2396 4.49128 10.5155 4.3845C10.7915 4.27777 11.0026 4.24838 11.1485 4.29648C11.3828 4.89979 11.4037 5.44431 11.2109 5.93007C11.6223 6.38391 11.8282 6.93387 11.8282 7.57985C11.8282 8.03363 11.7746 8.43527 11.668 8.78501C11.5613 9.13481 11.4233 9.41491 11.2541 9.6259C11.0847 9.83686 10.8738 10.0144 10.6212 10.1584C10.3686 10.3026 10.1237 10.4067 9.88677 10.4708C9.64975 10.5349 9.38288 10.5831 9.08604 10.6151C9.35677 10.8553 9.49217 11.2344 9.49217 11.7522V13.4418C9.49217 13.5378 9.52473 13.618 9.58991 13.682C9.65501 13.7459 9.75781 13.7647 9.89846 13.738C11.1069 13.3269 12.0926 12.5862 12.8555 11.5157C13.6184 10.4453 14 9.2402 14 7.9C13.9997 6.78445 13.7313 5.75552 13.1951 4.81321Z" fill="white"/>
</svg>
